<?xml version="1.0" encoding="UTF-8" standalone="no"?>
<!-- Generator: Adobe Illustrator 19.1.0, SVG Export Plug-In . SVG Version: 6.00 Build 0)  -->

<svg
   xmlns:dc="http://purl.org/dc/elements/1.1/"
   xmlns:cc="http://creativecommons.org/ns#"
   xmlns:rdf="http://www.w3.org/1999/02/22-rdf-syntax-ns#"
   xmlns:svg="http://www.w3.org/2000/svg"
   xmlns="http://www.w3.org/2000/svg"
   xmlns:sodipodi="http://sodipodi.sourceforge.net/DTD/sodipodi-0.dtd"
   xmlns:inkscape="http://www.inkscape.org/namespaces/inkscape"
   version="1.1"
   id="Capa_1"
   x="0px"
   y="0px"
   viewBox="0 0 170.6621 120"
   xml:space="preserve"
   sodipodi:docname="arrow.svg"
   width="170.66209"
   height="120"
   inkscape:version="0.92.4 (5da689c313, 2019-01-14)"><metadata
   id="metadata39"><rdf:RDF><cc:Work
       rdf:about=""><dc:format>image/svg+xml</dc:format><dc:type
         rdf:resource="http://purl.org/dc/dcmitype/StillImage" /><dc:title></dc:title></cc:Work></rdf:RDF></metadata><defs
   id="defs37" /><sodipodi:namedview
   pagecolor="#333333"
   bordercolor="#666666"
   borderopacity="1"
   objecttolerance="10"
   gridtolerance="10"
   guidetolerance="10"
   inkscape:pageopacity="0"
   inkscape:pageshadow="2"
   inkscape:window-width="1920"
   inkscape:window-height="1013"
   id="namedview35"
   showgrid="false"
   showborder="false"
   inkscape:zoom="3.7472214"
   inkscape:cx="25.002489"
   inkscape:cy="35.859873"
   inkscape:window-x="-9"
   inkscape:window-y="-9"
   inkscape:window-maximized="1"
   inkscape:current-layer="Capa_1" />
<path
   style="fill:#0b6091;stroke-width:5.41956472;stroke:none;fill-opacity:1"
   d="m 114.92187,1.8047153 c -2.325,-2.40628705 -6.19456,-2.40628705 -8.60085,0 -2.32499,2.324993 -2.32499,6.194562 0,8.5141357 l 43.61124,43.611237 H 6.0211363 C 2.6664258,53.935507 0,56.601933 0,59.956643 c 0,3.354711 2.6664258,6.10785 6.0211363,6.10785 H 149.93226 l -43.61124,43.529947 c -2.32499,2.40628 -2.32499,6.28127 0,8.60085 2.40629,2.40628 6.28127,2.40628 8.60085,0 l 53.93551,-53.935512 c 2.40628,-2.324993 2.40628,-6.194563 0,-8.514136 z"
   id="path2"
   inkscape:connector-curvature="0" />
<g
   id="g4"
   transform="translate(0,93.184)">
</g>
<g
   id="g6"
   transform="translate(0,93.184)">
</g>
<g
   id="g8"
   transform="translate(0,93.184)">
</g>
<g
   id="g10"
   transform="translate(0,93.184)">
</g>
<g
   id="g12"
   transform="translate(0,93.184)">
</g>
<g
   id="g14"
   transform="translate(0,93.184)">
</g>
<g
   id="g16"
   transform="translate(0,93.184)">
</g>
<g
   id="g18"
   transform="translate(0,93.184)">
</g>
<g
   id="g20"
   transform="translate(0,93.184)">
</g>
<g
   id="g22"
   transform="translate(0,93.184)">
</g>
<g
   id="g24"
   transform="translate(0,93.184)">
</g>
<g
   id="g26"
   transform="translate(0,93.184)">
</g>
<g
   id="g28"
   transform="translate(0,93.184)">
</g>
<g
   id="g30"
   transform="translate(0,93.184)">
</g>
<g
   id="g32"
   transform="translate(0,93.184)">
</g>
</svg>