<?xml version="1.0" encoding="UTF-8" standalone="no"?>
<!-- Created with Inkscape (http://www.inkscape.org/) -->

<svg
   xmlns:dc="http://purl.org/dc/elements/1.1/"
   xmlns:cc="http://creativecommons.org/ns#"
   xmlns:rdf="http://www.w3.org/1999/02/22-rdf-syntax-ns#"
   xmlns:svg="http://www.w3.org/2000/svg"
   xmlns="http://www.w3.org/2000/svg"
   xmlns:xlink="http://www.w3.org/1999/xlink"
   xmlns:sodipodi="http://sodipodi.sourceforge.net/DTD/sodipodi-0.dtd"
   xmlns:inkscape="http://www.inkscape.org/namespaces/inkscape"
   width="992.16724"
   height="200.00005"
   viewBox="0 0 262.51091 52.91668"
   version="1.1"
   id="svg8"
   sodipodi:docname="logo-color.svg"
   inkscape:version="0.92.4 (5da689c313, 2019-01-14)">
  <defs
     id="defs2">
    <linearGradient
       inkscape:collect="always"
       xlink:href="#linearGradient486"
       id="linearGradient4574"
       x1="815.54382"
       y1="748.84357"
       x2="813.20026"
       y2="698.95068"
       gradientUnits="userSpaceOnUse"
       gradientTransform="translate(-876.87365,-578.46564)" />
    <linearGradient
       x1="0"
       y1="0"
       x2="1"
       y2="0"
       gradientUnits="userSpaceOnUse"
       gradientTransform="matrix(-96.527977,71.346764,71.346764,96.527977,425.09204,95.377083)"
       spreadMethod="pad"
       id="linearGradient486">
      <stop
         style="stop-opacity:1;stop-color:#4fc3f7"
         offset="0"
         id="stop480" />
      <stop
         style="stop-opacity:1;stop-color:#039be5"
         offset="0.994872"
         id="stop482" />
      <stop
         style="stop-opacity:1;stop-color:#039be5"
         offset="1"
         id="stop484" />
    </linearGradient>
  </defs>
  <sodipodi:namedview
     id="base"
     pagecolor="#1f1f1f"
     bordercolor="#666666"
     borderopacity="1.0"
     inkscape:pageopacity="0"
     inkscape:pageshadow="2"
     inkscape:zoom="0.35"
     inkscape:cx="749.31657"
     inkscape:cy="293.3594"
     inkscape:document-units="px"
     inkscape:current-layer="layer1"
     showgrid="false"
     showborder="true"
     units="px"
     inkscape:window-width="1920"
     inkscape:window-height="1013"
     inkscape:window-x="-9"
     inkscape:window-y="-9"
     inkscape:window-maximized="1" />
  <metadata
     id="metadata5">
    <rdf:RDF>
      <cc:Work
         rdf:about="">
        <dc:format>image/svg+xml</dc:format>
        <dc:type
           rdf:resource="http://purl.org/dc/dcmitype/StillImage" />
        <dc:title></dc:title>
      </cc:Work>
    </rdf:RDF>
  </metadata>
  <g
     inkscape:label="Layer 1"
     inkscape:groupmode="layer"
     id="layer1"
     transform="translate(101.01731,-118.59522)">
    <g
       id="g3662">
      <path
         d="m -40.238766,170.2419 v -26.53393 q 0,-1.04321 0.362857,-1.76893 0.408215,-0.72571 0.997858,-1.22464 0.589642,-0.49893 1.27,-0.72571 0.725714,-0.22679 1.315357,-0.22679 h 11.157857 q 2.313214,0 4.354286,0.45357 2.041071,0.40822 3.583214,1.45143 1.542143,1.04322 2.449286,2.81214 0.907143,1.72358 0.907143,4.30893 0,1.95036 -0.997857,3.53786 -0.9525,1.5875 -2.676072,2.54 2.041072,0.81643 3.175,2.81214 1.179286,1.95036 1.179286,4.08215 0,2.63071 -0.9525,4.445 -0.907143,1.81428 -2.494643,2.99357 -1.5875,1.13393 -3.719286,1.67821 -2.086428,0.49893 -4.445,0.49893 h -14.332857 q -0.453572,0 -0.816429,-0.3175 -0.3175,-0.36286 -0.3175,-0.81643 z m 14.151429,-17.96143 q 1.542143,0 2.494643,-0.81643 0.9525,-0.86178 0.9525,-2.44928 0,-1.5875 -0.997857,-2.35857 -0.9525,-0.81643 -2.449286,-0.81643 h -8.164286 q 1.043215,0 1.768929,0.77107 0.725714,0.72571 0.725714,1.63286 v 2.72143 q 0,0.40821 0.362857,0.86178 0.362857,0.45357 0.997857,0.45357 z m 0.408214,12.97215 q 1.632857,0 2.630715,-0.90715 1.043214,-0.90714 1.043214,-2.58535 0,-1.63286 -1.043214,-2.58536 -1.043215,-0.99786 -2.630715,-0.99786 h -8.5725 q 1.043215,0 1.768929,0.77107 0.725714,0.72572 0.725714,1.63286 v 3.31107 q 0,0.45357 0.3175,0.90714 0.362857,0.45358 1.043214,0.45358 z"
         style="font-style:normal;font-variant:normal;font-weight:bold;font-stretch:normal;font-size:45.3571434px;line-height:1;font-family:Cunia;-inkscape-font-specification:'Cunia Bold';font-variant-ligatures:normal;font-variant-caps:normal;font-variant-numeric:normal;font-feature-settings:normal;text-align:start;letter-spacing:0px;word-spacing:0px;writing-mode:lr-tb;text-anchor:start;fill:#014166;fill-opacity:1;stroke:none;stroke-width:0.79600006"
         id="path3630"
         inkscape:connector-curvature="0" />
      <path
         d="m -8.1698494,170.28726 v -26.53393 q 0,-1.72357 1.1792857,-2.81214 1.1792858,-1.13393 2.7667858,-1.13393 h 3.62857147 q 0.54428572,0 0.81642858,0.3175 0.3175,0.3175 0.3175,0.81643 v 29.34607 q 0,0.45357 -0.3175,0.77107 -0.27214286,0.36286 -0.81642858,0.36286 H -7.0359208 q -0.4535714,0 -0.8164286,-0.3175 -0.3175,-0.36286 -0.3175,-0.81643 z"
         style="font-style:normal;font-variant:normal;font-weight:bold;font-stretch:normal;font-size:45.3571434px;line-height:1;font-family:Cunia;-inkscape-font-specification:'Cunia Bold';font-variant-ligatures:normal;font-variant-caps:normal;font-variant-numeric:normal;font-feature-settings:normal;text-align:start;letter-spacing:0px;word-spacing:0px;writing-mode:lr-tb;text-anchor:start;fill:#014166;fill-opacity:1;stroke:none;stroke-width:0.79600006"
         id="path3632"
         inkscape:connector-curvature="0" />
      <path
         d="m 6.7583203,170.2419 v -26.53393 q 0,-1.5875 1.1339285,-2.76678 1.1339286,-1.17929 2.8121432,-1.17929 h 1.496785 q 0.498929,0 1.179286,0.22679 0.680357,0.18143 1.406072,1.17928 2.676071,4.17286 4.807857,7.52929 1.315357,2.04107 2.041071,3.26571 0.771072,1.17929 1.451429,2.2225 0.680357,0.99786 1.133928,1.72357 0.453572,0.72572 0.544286,0.86179 0,0.0907 0.181429,0.0907 0.226785,0 0.226785,-0.22678 v -12.92679 q 0,-1.76893 1.224643,-2.8575 1.224643,-1.08857 2.766786,-1.08857 h 2.902857 q 0.498929,0 0.816429,0.3175 0.3175,0.40822 0.3175,0.86179 v 29.25535 q 0,0.40822 -0.3175,0.81643 -0.362857,0.36286 -0.816429,0.36286 h -5.125357 q -0.997857,0 -1.542143,-0.86179 -2.721428,-4.17285 -4.898571,-7.48392 -1.315357,-1.99572 -2.086429,-3.175 -0.771071,-1.22465 -1.451428,-2.2225 -0.680358,-1.04322 -1.133929,-1.72358 -0.453571,-0.72571 -0.544286,-0.86178 -0.136071,-0.13607 -0.226785,-0.13607 -0.226786,0 -0.226786,0.22678 v 15.10393 q 0,0.49893 -0.362857,0.81643 -0.362858,0.3175 -0.816429,0.3175 H 7.8922488 q -0.4082142,0 -0.7710714,-0.36286 -0.3628571,-0.36285 -0.3628571,-0.77107 z"
         style="font-style:normal;font-variant:normal;font-weight:bold;font-stretch:normal;font-size:45.3571434px;line-height:1;font-family:Cunia;-inkscape-font-specification:'Cunia Bold';font-variant-ligatures:normal;font-variant-caps:normal;font-variant-numeric:normal;font-feature-settings:normal;text-align:start;letter-spacing:0px;word-spacing:0px;writing-mode:lr-tb;text-anchor:start;fill:#014166;fill-opacity:1;stroke:none;stroke-width:0.79600006"
         id="path3634"
         inkscape:connector-curvature="0" />
      <path
         d="m 63.033068,139.7619 q 0.498929,0 0.816429,0.36286 0.362857,0.3175 0.362857,0.77107 v 5.08 q 0,0.49893 -0.362857,0.81643 -0.3175,0.3175 -0.816429,0.3175 H 52.510211 q 0.997857,0 1.768929,0.72571 0.816428,0.72572 0.816428,1.63286 v 20.77357 q 0,0.49893 -0.362857,0.77107 -0.3175,0.3175 -0.816428,0.3175 H 47.61164 q -0.498929,0 -0.816429,-0.3175 -0.362857,-0.27214 -0.362857,-0.77107 v -21.77143 q 0,-0.635 -0.408214,-0.99785 -0.408215,-0.36286 -0.9525,-0.36286 h -6.576786 q -0.453572,0 -0.816429,-0.3175 -0.362857,-0.3175 -0.362857,-0.81643 v -2.31321 q 0,-0.86179 0.3175,-1.5875 0.362857,-0.72572 0.907143,-1.22465 0.589643,-0.54428 1.27,-0.81643 0.725714,-0.27214 1.451429,-0.27214 z"
         style="font-style:normal;font-variant:normal;font-weight:bold;font-stretch:normal;font-size:45.3571434px;line-height:1;font-family:Cunia;-inkscape-font-specification:'Cunia Bold';font-variant-ligatures:normal;font-variant-caps:normal;font-variant-numeric:normal;font-feature-settings:normal;text-align:start;letter-spacing:0px;word-spacing:0px;writing-mode:lr-tb;text-anchor:start;fill:#014166;fill-opacity:1;stroke:none;stroke-width:0.79600006"
         id="path3636"
         inkscape:connector-curvature="0" />
      <path
         d="m 65.743864,171.23976 q -0.272143,-0.36286 -0.272143,-0.68036 0,-0.3175 0.04536,-0.40821 l 10.522857,-28.93786 q 0.498929,-1.31536 1.814286,-1.31536 h 7.030357 q 1.315358,0 1.814286,1.31536 l 10.522857,28.93786 q 0.04536,0.0907 0.04536,0.40821 0,0.36286 -0.317501,0.68036 -0.272142,0.27214 -0.635,0.27214 h -5.851071 q -1.133929,0 -1.542143,-0.99786 l -2.358571,-6.39535 q -1.632858,0.635 -3.311072,1.04321 -1.678214,0.40822 -3.265714,0.635 -1.542143,0.18143 -2.902857,0.27214 -1.360715,0.0454 -2.358572,0.0454 -0.635,0 -1.088571,0 -0.408215,0 -0.635,-0.0454 0.816428,0.13608 1.315357,0.90715 0.544286,0.77107 0.136071,1.81428 l -0.635,1.72357 q -0.408214,0.99786 -1.542143,0.99786 h -5.851071 q -0.3175,0 -0.680357,-0.27214 z m 11.520714,-11.61143 q 1.27,-0.0907 2.630715,-0.3175 1.179285,-0.18143 2.449285,-0.49893 1.315357,-0.36286 2.494643,-0.99786 l -3.4925,-9.97857 z"
         style="font-style:normal;font-variant:normal;font-weight:bold;font-stretch:normal;font-size:45.3571434px;line-height:1;font-family:Cunia;-inkscape-font-specification:'Cunia Bold';font-variant-ligatures:normal;font-variant-caps:normal;font-variant-numeric:normal;font-feature-settings:normal;text-align:start;letter-spacing:0px;word-spacing:0px;writing-mode:lr-tb;text-anchor:start;fill:#014166;fill-opacity:1;stroke:none;stroke-width:0.79600006"
         id="path3638"
         inkscape:connector-curvature="0" />
      <path
         d="m 126.96255,171.42119 h -6.39536 q -1.27,0 -1.81428,-1.17929 l -4.62643,-9.07143 q -0.40822,-0.72571 -1.22465,-0.72571 h -5.94178 q 1.13393,0 1.76893,0.81643 0.68035,0.77107 0.68035,1.5875 v 7.48393 q 0,0.49892 -0.3175,0.77107 -0.3175,0.3175 -0.81642,0.3175 h -6.21393 q -0.45357,0 -0.81643,-0.3175 -0.3175,-0.36286 -0.3175,-0.77107 v -26.57929 q 0,-1.67821 1.17928,-2.76679 1.17929,-1.13392 2.76679,-1.13392 h 9.61571 q 2.54,0 4.80786,0.54428 2.31322,0.54429 4.03679,1.76893 1.76893,1.22464 2.81214,3.22036 1.04321,1.95035 1.04321,4.80785 0,2.72143 -1.22464,4.89858 -1.22464,2.17714 -3.62857,3.53785 -0.36286,0.22679 -0.40821,0.54429 0,0.3175 0.13607,0.49893 l 5.715,10.34143 q 0.13607,0.27214 0.13607,0.49892 0,0.36286 -0.3175,0.635 -0.27214,0.27215 -0.635,0.27215 z m -8.52714,-21.2725 q 0,-1.85965 -1.13393,-2.81215 -1.08857,-0.99785 -2.8575,-0.99785 h -7.80143 q 1.13393,0 1.81428,0.77107 0.68036,0.77107 0.68036,1.63286 v 3.67392 q 0,0.54429 0.36286,0.9525 0.40821,0.40822 0.99786,0.40822 h 3.94607 q 1.76893,0 2.8575,-0.86179 1.13393,-0.90714 1.13393,-2.76678 z"
         style="font-style:normal;font-variant:normal;font-weight:bold;font-stretch:normal;font-size:45.3571434px;line-height:1;font-family:Cunia;-inkscape-font-specification:'Cunia Bold';font-variant-ligatures:normal;font-variant-caps:normal;font-variant-numeric:normal;font-feature-settings:normal;text-align:start;letter-spacing:0px;word-spacing:0px;writing-mode:lr-tb;text-anchor:start;fill:#014166;fill-opacity:1;stroke:none;stroke-width:0.79600006"
         id="path3640"
         inkscape:connector-curvature="0" />
      <path
         d="m 129.97029,171.23976 q -0.27214,-0.36286 -0.27214,-0.68036 0,-0.3175 0.0454,-0.40821 l 10.52286,-28.93786 q 0.49893,-1.31536 1.81429,-1.31536 h 7.03035 q 1.31536,0 1.81429,1.31536 l 10.52286,28.93786 q 0.0454,0.0907 0.0454,0.40821 0,0.36286 -0.3175,0.68036 -0.27214,0.27214 -0.635,0.27214 h -5.85107 q -1.13393,0 -1.54214,-0.99786 l -2.35857,-6.39535 q -1.63286,0.635 -3.31107,1.04321 -1.67822,0.40822 -3.26572,0.635 -1.54214,0.18143 -2.90286,0.27214 -1.36071,0.0454 -2.35857,0.0454 -0.635,0 -1.08857,0 -0.40821,0 -0.635,-0.0454 0.81643,0.13608 1.31536,0.90715 0.54428,0.77107 0.13607,1.81428 l -0.635,1.72357 q -0.40821,0.99786 -1.54214,0.99786 h -5.85107 q -0.3175,0 -0.68036,-0.27214 z M 141.491,159.62833 q 1.27,-0.0907 2.63072,-0.3175 1.17928,-0.18143 2.44928,-0.49893 1.31536,-0.36286 2.49465,-0.99786 l -3.4925,-9.97857 z"
         style="font-style:normal;font-variant:normal;font-weight:bold;font-stretch:normal;font-size:45.3571434px;line-height:1;font-family:Cunia;-inkscape-font-specification:'Cunia Bold';font-variant-ligatures:normal;font-variant-caps:normal;font-variant-numeric:normal;font-feature-settings:normal;text-align:start;letter-spacing:0px;word-spacing:0px;writing-mode:lr-tb;text-anchor:start;fill:#014166;fill-opacity:1;stroke:none;stroke-width:0.79600006"
         id="path3642"
         inkscape:connector-curvature="0" />
      <path
         d="m -101.01731,149.32398 v 7.22957 c 0,4.45699 5.38889,6.68955 8.54085,3.53759 v -10.76716 z"
         style="fill:#259cd4;fill-opacity:1;fill-rule:nonzero;stroke:none;stroke-width:0.62501675"
         id="path172-2"
         inkscape:connector-curvature="0" />
      <path
         inkscape:connector-curvature="0"
         d="m -80.33301,118.59522 h -20.6843 l 8.54085,8.54085 h 12.14345 c 3.76198,0 6.82268,3.06134 6.82268,6.82331 0,3.7626 -3.0607,6.82331 -6.82268,6.82331 h -12.14345 l -8.54085,8.54148 h 20.6843 c 8.47148,0 15.36416,-6.89269 15.36416,-15.36479 0,-8.47148 -6.89268,-15.36416 -15.36416,-15.36416 m -12.14326,8.54104 -8.54085,-8.54085 v 15.74917 c 0,4.45699 5.38889,6.68955 8.54085,3.53759 v 0 z"
         style="fill:#026199;fill-opacity:1;fill-rule:nonzero;stroke:none;stroke-width:0.62501675"
         id="path4630" />
      <path
         inkscape:connector-curvature="0"
         id="path160-1"
         d="m -77.21574,140.78294 h -15.26041 l -8.54085,8.54085 h 8.54085 15.46854 0.23688 c 2.92883,0 5.42452,1.85755 6.3908,4.45325 0.0375,0.0987 0.0762,0.19625 0.10938,0.29751 0.0206,0.0662 0.0375,0.13375 0.0569,0.20063 0.0425,0.1475 0.0831,0.29625 0.11501,0.44876 0.0144,0.0663 0.0244,0.135 0.0362,0.2025 0.0194,0.10751 0.0437,0.21313 0.0581,0.32251 0.004,0.0356 0.004,0.07 0.007,0.10563 0.0169,0.14313 0.0244,0.28813 0.0319,0.43376 0.005,0.0981 0.0144,0.19626 0.015,0.29313 0,0.0225 0.003,0.0438 0.003,0.0656 0,0.13688 -0.0125,0.27001 -0.02,0.40439 -0.005,0.0856 -0.005,0.1725 -0.0131,0.25688 -0.0194,0.19813 -0.05,0.39251 -0.0862,0.58564 -0.007,0.0394 -0.01,0.08 -0.0181,0.11938 -0.0469,0.23063 -0.10625,0.45751 -0.17625,0.67939 -0.0213,0.0663 -0.0488,0.12875 -0.0713,0.19438 -0.0537,0.15376 -0.10812,0.30751 -0.1725,0.45626 -0.035,0.0819 -0.0769,0.15938 -0.11563,0.23939 -0.0606,0.12687 -0.12125,0.25438 -0.19,0.37751 -0.0469,0.0838 -0.0994,0.16375 -0.14938,0.24563 -0.0694,0.11312 -0.13938,0.22625 -0.21501,0.33501 -0.0569,0.0806 -0.1175,0.15813 -0.17688,0.23688 -0.0788,0.1025 -0.15813,0.20438 -0.2425,0.30313 -0.065,0.0756 -0.13313,0.14875 -0.20188,0.22188 -0.0875,0.0931 -0.17563,0.18438 -0.26814,0.27251 -0.0731,0.07 -0.14813,0.1375 -0.22438,0.20438 -0.0956,0.0831 -0.19313,0.16438 -0.29376,0.24251 -0.0794,0.0625 -0.16,0.12312 -0.2425,0.18188 -0.10438,0.0744 -0.21126,0.14437 -0.31939,0.21313 -0.0856,0.0537 -0.17063,0.10687 -0.25875,0.15688 -0.11188,0.0644 -0.22751,0.12312 -0.34376,0.18063 -0.09,0.045 -0.17938,0.09 -0.27126,0.13062 -0.12125,0.0544 -0.24626,0.10126 -0.37126,0.14813 -0.0919,0.0344 -0.1825,0.0706 -0.27626,0.10126 -0.13375,0.0431 -0.27063,0.0781 -0.40813,0.11375 -0.0894,0.0231 -0.17751,0.0494 -0.26876,0.0694 -0.15375,0.0325 -0.31063,0.055 -0.46689,0.0769 -0.0794,0.0113 -0.15688,0.0281 -0.23688,0.0362 -0.23876,0.0256 -0.48001,0.0394 -0.72502,0.0394 h -15.70484 l -8.54085,8.54148 h 24.24627 c 8.72961,0 15.78167,-7.31707 15.34604,-16.13918 -0.40751,-8.25335 -7.5277,-14.58977 -15.79105,-14.58977"
         style="fill:url(#linearGradient4574);fill-opacity:1;fill-rule:nonzero;stroke:none;stroke-width:0.62501675" />
    </g>
  </g>
</svg>
