<?xml version="1.0" encoding="UTF-8" standalone="no"?>
<!-- Created with Inkscape (http://www.inkscape.org/) -->

<svg
   xmlns:dc="http://purl.org/dc/elements/1.1/"
   xmlns:cc="http://creativecommons.org/ns#"
   xmlns:rdf="http://www.w3.org/1999/02/22-rdf-syntax-ns#"
   xmlns:svg="http://www.w3.org/2000/svg"
   xmlns="http://www.w3.org/2000/svg"
   xmlns:sodipodi="http://sodipodi.sourceforge.net/DTD/sodipodi-0.dtd"
   xmlns:inkscape="http://www.inkscape.org/namespaces/inkscape"
   width="1594.8741"
   height="1000"
   viewBox="0 0 421.97711 264.58334"
   version="1.1"
   id="svg8"
   sodipodi:docname="vsat-vpn.svg"
   inkscape:version="0.92.4 (5da689c313, 2019-01-14)">
  <defs
     id="defs2">
    <inkscape:path-effect
       effect="spiro"
       id="path-effect5660"
       is_visible="true" />
    <inkscape:path-effect
       is_visible="true"
       id="path-effect5664"
       effect="spiro" />
  </defs>
  <sodipodi:namedview
     id="base"
     pagecolor="#1f1f1f"
     bordercolor="#666666"
     borderopacity="1.0"
     inkscape:pageopacity="0"
     inkscape:pageshadow="2"
     inkscape:zoom="0.35"
     inkscape:cx="1237.6449"
     inkscape:cy="1218.4573"
     inkscape:document-units="px"
     inkscape:current-layer="layer1"
     showgrid="false"
     showborder="true"
     units="px"
     inkscape:window-width="1920"
     inkscape:window-height="1013"
     inkscape:window-x="-9"
     inkscape:window-y="-9"
     inkscape:window-maximized="1" />
  <metadata
     id="metadata5">
    <rdf:RDF>
      <cc:Work
         rdf:about="">
        <dc:format>image/svg+xml</dc:format>
        <dc:type
           rdf:resource="http://purl.org/dc/dcmitype/StillImage" />
        <dc:title></dc:title>
      </cc:Work>
    </rdf:RDF>
  </metadata>
  <g
     inkscape:label="Layer 1"
     inkscape:groupmode="layer"
     id="layer1"
     transform="translate(339.55546,-206.63349)">
    <g
       transform="matrix(0.41522322,0,0,0.41522322,-206.60624,-20.483952)"
       id="g6574">
      <g
         transform="matrix(0.63096177,0,0,0.63096177,-238.11037,851.62764)"
         id="g4455">
        <path
           style="fill:#635562"
           inkscape:connector-curvature="0"
           d="m 169.57031,182.22266 c -4.20312,0 -7.60937,-3.40625 -7.60937,-7.61329 v -55.59374 c 0,-4.20313 3.40625,-7.61329 7.60937,-7.61329 4.20313,0 7.61328,3.41016 7.61328,7.61329 v 55.59374 c 0,4.20313 -3.41015,7.61329 -7.61328,7.61329 z m 0,0"
           id="path4372" />
        <path
           style="fill:#8a7e88"
           inkscape:connector-curvature="0"
           d="m 208.33594,174.60937 c 0,-5.60546 -4.54688,-10.14843 -10.15235,-10.14843 h -57.22656 c -5.60547,0 -10.14844,4.54297 -10.14844,10.14843 v 32.92188 h 77.52735 z m 0,0"
           id="path4374" />
        <path
           style="fill:#635562"
           inkscape:connector-curvature="0"
           d="m 198.18359,164.46094 h -30.08984 c 5.60547,0 10.14844,4.54297 10.14844,10.14843 v 32.92188 h 30.09375 v -32.92188 c 0,-5.60546 -4.54688,-10.14843 -10.15235,-10.14843 z m 0,0"
           id="path4376" />
        <path
           style="fill:#f1eff2"
           inkscape:connector-curvature="0"
           d="M 229.47266,198.38281 H 109.66797 c -11.207032,0 -20.296876,9.08594 -20.296876,20.29688 v 283.17187 c 0,5.60547 4.546875,10.14844 10.148437,10.14844 h 53.121089 l 17.2461,-8.86328 L 186.49219,512 h 53.1289 c 5.60547,0 10.14844,-4.54297 10.14844,-10.14844 V 218.67969 c 0,-11.21094 -9.08594,-20.29688 -20.29687,-20.29688 z m 0,0"
           id="path4378" />
        <path
           style="fill:#e0dee1"
           inkscape:connector-curvature="0"
           d="m 229.47266,198.38281 h -52.66407 c 11.21094,0 20.29688,9.08594 20.29688,20.29688 v 283.17187 c 0,5.60547 -4.54297,10.14844 -10.14844,10.14844 h 52.66406 c 5.60547,0 10.14844,-4.54297 10.14844,-10.14844 V 218.67969 c 0,-11.21094 -9.08594,-20.29688 -20.29687,-20.29688 z m 0,0"
           id="path4380" />
        <path
           style="fill:#ff8087"
           inkscape:connector-curvature="0"
           d="m 199.66016,96.816406 c 0,16.617184 -13.46875,30.089844 -30.08985,30.089844 -16.61719,0 -30.08984,-13.47266 -30.08984,-30.089844 0,-16.617187 13.47265,-30.089844 30.08984,-30.089844 16.6211,0 30.08985,13.472657 30.08985,30.089844 z m 0,0"
           id="path4382" />
        <path
           style="fill:#fd6470"
           inkscape:connector-curvature="0"
           d="m 169.57031,66.726562 c -3.59765,0 -7.04687,0.632813 -10.24609,1.792969 11.57031,4.191407 19.84375,15.277344 19.84375,28.296875 0,13.019534 -8.27344,24.105474 -19.84375,28.296874 3.19922,1.16016 6.64844,1.79297 10.24609,1.79297 16.6211,0 30.08985,-13.47266 30.08985,-30.089844 0,-16.621094 -13.46875,-30.089844 -30.08985,-30.089844 z m 0,0"
           id="path4384" />
        <g
           style="fill:#e0dee1"
           id="g4398">
          <path
             inkscape:connector-curvature="0"
             d="m 94.160156,118.22266 c -1.980468,0 -3.957031,-0.76953 -5.449218,-2.29688 C 73.082031,99.898438 73.140625,73.757812 88.84375,57.652344 c 2.933594,-3.007813 7.753906,-3.070313 10.761719,-0.132813 3.011721,2.933594 3.070311,7.753907 0.136719,10.761719 -9.988282,10.242188 -10.046876,26.847656 -0.132813,37.01563 2.937505,3.01171 2.875005,7.82812 -0.132813,10.76171 -1.480468,1.44532 -3.398437,2.16407 -5.316406,2.16407 z m 0,0"
             id="path4386" />
          <path
             inkscape:connector-curvature="0"
             d="m 65.558594,147.55469 c -1.980469,0 -3.957032,-0.76953 -5.449219,-2.29688 -31.3125,-32.11328 -31.183594,-84.492185 0.292969,-116.765622 2.9375,-3.011719 7.753906,-3.074219 10.765625,-0.136719 3.007812,2.933593 3.070312,7.753906 0.132812,10.761719 -25.757812,26.417968 -25.890625,69.261722 -0.292969,95.511722 2.933594,3.00781 2.875,7.82812 -0.132812,10.76171 -1.484375,1.44532 -3.402344,2.16407 -5.316406,2.16407 z m 0,0"
             id="path4388" />
          <path
             inkscape:connector-curvature="0"
             d="m 39.867188,173.89453 c -1.976563,0 -3.957032,-0.76953 -5.449219,-2.29687 C -10.980469,125.04688 -10.78125,49.097656 34.859375,2.296875 37.796875,-0.710938 42.613281,-0.773438 45.625,2.164062 48.632812,5.097656 48.695312,9.917969 45.757812,12.925781 5.832031,53.867188 5.636719,120.27734 45.316406,160.96875 c 2.9375,3.00781 2.875,7.82812 -0.132812,10.76172 -1.480469,1.44531 -3.398438,2.16406 -5.316406,2.16406 z m 0,0"
             id="path4390" />
          <path
             inkscape:connector-curvature="0"
             d="m 244.84766,118.53906 c -1.91407,0 -3.83204,-0.71875 -5.3125,-2.16406 -3.01172,-2.93359 -3.07032,-7.75391 -0.13672,-10.76172 9.98828,-10.242186 10.04687,-26.847655 0.13281,-37.015624 -2.93359,-3.011718 -2.875,-7.828125 0.13672,-10.761718 3.00781,-2.941407 7.82422,-2.875 10.76172,0.132812 C 266.0625,74 266,100.13672 250.29687,116.24219 c -1.48828,1.52734 -3.46875,2.29687 -5.44921,2.29687 z m 0,0"
             id="path4392" />
          <path
             inkscape:connector-curvature="0"
             d="m 273.28906,147.70312 c -1.91406,0 -3.83203,-0.71875 -5.3125,-2.16406 -3.01172,-2.93359 -3.07031,-7.7539 -0.13672,-10.76172 25.76172,-26.41796 25.89453,-69.261715 0.29688,-95.511715 -2.9375,-3.007813 -2.875,-7.828125 0.13281,-10.761719 3.00781,-2.9375 7.82813,-2.875 10.76172,0.136719 31.31641,32.105469 31.18359,84.488285 -0.29297,116.765625 -1.48828,1.52734 -3.46875,2.29687 -5.44922,2.29687 z m 0,0"
             id="path4394" />
          <path
             inkscape:connector-curvature="0"
             d="m 298.83203,173.89453 c -1.91406,0 -3.83203,-0.71875 -5.3125,-2.16406 -3.01172,-2.9336 -3.07031,-7.75391 -0.13672,-10.76172 39.92578,-40.94141 40.125,-107.351562 0.44141,-148.042969 -2.9336,-3.007812 -2.875,-7.828125 0.13672,-10.761719 3.00781,-2.9375 7.82422,-2.875 10.76172,0.132813 45.39843,46.550781 45.19921,122.500005 -0.44141,169.300785 -1.48828,1.52734 -3.46875,2.29687 -5.44922,2.29687 z m 0,0"
             id="path4396" />
        </g>
        <path
           style="fill:#635562"
           inkscape:connector-curvature="0"
           d="m 121.66016,279.74609 c -4.20703,0 -7.61328,-3.40625 -7.61328,-7.60937 v -37.42578 c 0,-4.20703 3.41015,-7.61328 7.61328,-7.61328 4.20312,0 7.60937,3.40625 7.60937,7.61328 v 37.42578 c 0,4.20312 -3.40625,7.60937 -7.60937,7.60937 z m 0,0"
           id="path4400" />
        <path
           style="fill:#635562"
           inkscape:connector-curvature="0"
           d="m 169.57031,279.74609 c -4.20312,0 -7.60937,-3.40625 -7.60937,-7.60937 v -37.42578 c 0,-4.20703 3.40625,-7.61328 7.60937,-7.61328 4.20313,0 7.61328,3.40625 7.61328,7.61328 v 37.42578 c 0,4.20312 -3.41015,7.60937 -7.61328,7.60937 z m 0,0"
           id="path4402" />
        <path
           style="fill:#ffe177"
           inkscape:connector-curvature="0"
           d="m 217.48437,279.74609 c -4.20703,0 -7.61328,-3.40625 -7.61328,-7.60937 v -37.42578 c 0,-4.20703 3.41016,-7.61328 7.61328,-7.61328 4.20313,0 7.60938,3.40625 7.60938,7.61328 v 37.42578 c 0,4.20312 -3.40625,7.60937 -7.60938,7.60937 z m 0,0"
           id="path4404" />
        <path
           style="fill:#635562"
           inkscape:connector-curvature="0"
           d="m 121.66016,356.38281 c -4.20703,0 -7.61328,-3.41015 -7.61328,-7.61328 v -37.42578 c 0,-4.20313 3.41015,-7.60938 7.61328,-7.60938 4.20312,0 7.60937,3.40625 7.60937,7.60938 v 37.42578 c 0,4.20313 -3.40625,7.61328 -7.60937,7.61328 z m 0,0"
           id="path4406" />
        <path
           style="fill:#ffe177"
           inkscape:connector-curvature="0"
           d="m 169.57031,356.38281 c -4.20312,0 -7.60937,-3.41015 -7.60937,-7.61328 v -37.42578 c 0,-4.20313 3.40625,-7.60938 7.60937,-7.60938 4.20313,0 7.61328,3.40625 7.61328,7.60938 v 37.42578 c 0,4.20313 -3.41015,7.61328 -7.61328,7.61328 z m 0,0"
           id="path4408" />
        <path
           style="fill:#635562"
           inkscape:connector-curvature="0"
           d="m 217.48437,356.38281 c -4.20703,0 -7.61328,-3.41015 -7.61328,-7.61328 v -37.42578 c 0,-4.20313 3.41016,-7.60938 7.61328,-7.60938 4.20313,0 7.60938,3.40625 7.60938,7.60938 v 37.42578 c 0,4.20313 -3.40625,7.61328 -7.60938,7.61328 z m 0,0"
           id="path4410" />
        <path
           style="fill:#635562"
           inkscape:connector-curvature="0"
           d="m 121.66016,433.01562 c -4.20703,0 -7.61328,-3.40625 -7.61328,-7.60937 v -37.42578 c 0,-4.20703 3.41015,-7.61328 7.61328,-7.61328 4.20312,0 7.60937,3.40625 7.60937,7.61328 v 37.42578 c 0,4.20312 -3.40625,7.60937 -7.60937,7.60937 z m 0,0"
           id="path4412" />
        <path
           style="fill:#ffe177"
           inkscape:connector-curvature="0"
           d="m 169.57031,433.01562 c -4.20312,0 -7.60937,-3.40625 -7.60937,-7.60937 v -37.42578 c 0,-4.20703 3.40625,-7.61328 7.60937,-7.61328 4.20313,0 7.61328,3.40625 7.61328,7.61328 v 37.42578 c 0,4.20312 -3.41015,7.60937 -7.61328,7.60937 z m 0,0"
           id="path4414" />
        <path
           style="fill:#635562"
           inkscape:connector-curvature="0"
           d="m 217.48437,433.01562 c -4.20703,0 -7.61328,-3.40625 -7.61328,-7.60937 v -37.42578 c 0,-4.20703 3.41016,-7.61328 7.61328,-7.61328 4.20313,0 7.60938,3.40625 7.60938,7.61328 v 37.42578 c 0,4.20312 -3.40625,7.60937 -7.60938,7.60937 z m 0,0"
           id="path4416" />
        <path
           style="fill:#8a7e88"
           inkscape:connector-curvature="0"
           d="m 176.35156,460.15625 h -13.5625 c -5.60547,0 -10.14844,4.54687 -10.14844,10.14844 V 512 h 33.86329 v -41.69531 c 0,-5.60157 -4.54688,-10.14844 -10.15235,-10.14844 z m 0,0"
           id="path4418" />
        <path
           style="fill:#635562"
           inkscape:connector-curvature="0"
           d="m 176.35156,460.15625 h -11.80469 c 5.60547,0 10.14844,4.54687 10.14844,10.14844 V 512 h 11.8086 v -41.69531 c 0,-5.60157 -4.54688,-10.14844 -10.15235,-10.14844 z m 0,0"
           id="path4420" />
      </g>
      <g
         transform="matrix(-0.39860499,0,0,0.39860499,635.32426,921.29999)"
         id="g4777">
        <path
           style="fill:#f4b844"
           inkscape:connector-curvature="0"
           d="m 201.05078,163.10156 c -4.41797,0 -8,-3.58203 -8,-8 v -29.77734 c 0,-4.41797 3.58203,-8 8,-8 4.41797,0 8,3.58203 8,8 v 29.77734 c 0,4.41797 -3.58203,8 -8,8 z m 0,0"
           id="path4706" />
        <path
           style="fill:#00acea"
           inkscape:connector-curvature="0"
           d="m 402.05078,319.53906 v 174.5625 H 290.64844 v -194.5625 h 91.40234 c 11.04297,0 20,8.95703 20,20 z m 0,0"
           id="path4708" />
        <path
           style="fill:#00efd1"
           inkscape:connector-curvature="0"
           d="m 290.64844,299.53906 v 194.5625 H 111.44922 V 227.82812 c 0,-11.04296 8.95703,-20 20,-20 h 139.19922 c 11.04687,0 20,8.95704 20,20 z m 0,0"
           id="path4710" />
        <g
           style="fill:#00acea"
           id="g4728">
          <path
             inkscape:connector-curvature="0"
             d="m 201.05078,154.55078 h 38.12109 c 11.04297,0 20,8.95313 20,20 v 33.27734 H 142.92969 v -33.27734 c 0,-11.04687 8.95312,-20 20,-20 z m 0,0"
             id="path4712" />
          <path
             inkscape:connector-curvature="0"
             d="m 111.44922,299.53906 v 194.5625 H 0.0507812 v -174.5625 c 0,-11.04297 8.9531248,-20 19.9999998,-20 z m 0,0"
             id="path4714" />
          <path
             inkscape:connector-curvature="0"
             d="m 242.69922,261.53125 h -83.30078 c -4.41797,0 -8,-3.58203 -8,-8 0,-4.41797 3.58203,-8 8,-8 h 83.30078 c 4.41797,0 8,3.58203 8,8 0,4.41797 -3.58203,8 -8,8 z m 0,0"
             id="path4716" />
          <path
             inkscape:connector-curvature="0"
             d="m 242.69922,314.80859 h -83.30078 c -4.41797,0 -8,-3.58203 -8,-8 0,-4.41797 3.58203,-8 8,-8 h 83.30078 c 4.41797,0 8,3.58203 8,8 0,4.41797 -3.58203,8 -8,8 z m 0,0"
             id="path4718" />
          <path
             inkscape:connector-curvature="0"
             d="m 242.69922,368.07812 h -83.30078 c -4.41797,0 -8,-3.57812 -8,-8 0,-4.41796 3.58203,-8 8,-8 h 83.30078 c 4.41797,0 8,3.58204 8,8 0,4.42188 -3.58203,8 -8,8 z m 0,0"
             id="path4720" />
          <path
             inkscape:connector-curvature="0"
             d="m 157.46094,452.69922 c -4.41797,0 -8,-3.58203 -8,-8 v -35.03906 c 0,-4.41797 3.58203,-8 8,-8 4.41797,0 8,3.58203 8,8 v 35.03906 c 0,4.41797 -3.58203,8 -8,8 z m 0,0"
             id="path4722" />
          <path
             inkscape:connector-curvature="0"
             d="m 201.05078,452.69922 c -4.41797,0 -8,-3.58203 -8,-8 v -35.03906 c 0,-4.41797 3.58203,-8 8,-8 4.41797,0 8,3.58203 8,8 v 35.03906 c 0,4.41797 -3.58203,8 -8,8 z m 0,0"
             id="path4724" />
          <path
             inkscape:connector-curvature="0"
             d="m 244.64062,452.69922 c -4.41796,0 -8,-3.58203 -8,-8 v -35.03906 c 0,-4.41797 3.58204,-8 8,-8 4.41797,0 8,3.58203 8,8 v 35.03906 c 0,4.41797 -3.58203,8 -8,8 z m 0,0"
             id="path4726" />
        </g>
        <path
           style="fill:#00efd1"
           inkscape:connector-curvature="0"
           d="m 371.05078,363.23828 h -49.40234 c -4.41797,0 -8,-3.57812 -8,-8 0,-4.41797 3.58203,-8 8,-8 h 49.40234 c 4.41797,0 8,3.58203 8,8 0,4.42188 -3.58203,8 -8,8 z m 0,0"
           id="path4730" />
        <path
           style="fill:#00efd1"
           inkscape:connector-curvature="0"
           d="m 371.05078,406.51953 h -49.40234 c -4.41797,0 -8,-3.58203 -8,-8 0,-4.41797 3.58203,-8 8,-8 h 49.40234 c 4.41797,0 8,3.58203 8,8 0,4.41797 -3.58203,8 -8,8 z m 0,0"
           id="path4732" />
        <path
           style="fill:#00efd1"
           inkscape:connector-curvature="0"
           d="m 371.05078,449.80078 h -49.40234 c -4.41797,0 -8,-3.58203 -8,-8 0,-4.41797 3.58203,-8 8,-8 h 49.40234 c 4.41797,0 8,3.58203 8,8 0,4.41797 -3.58203,8 -8,8 z m 0,0"
           id="path4734" />
        <path
           style="fill:#00efd1"
           inkscape:connector-curvature="0"
           d="M 80.449219,363.23828 H 31.050781 c -4.417969,0 -8,-3.57812 -8,-8 0,-4.41797 3.582031,-8 8,-8 h 49.398438 c 4.417969,0 8,3.58203 8,8 0,4.42188 -3.582031,8 -8,8 z m 0,0"
           id="path4736" />
        <path
           style="fill:#00efd1"
           inkscape:connector-curvature="0"
           d="M 80.449219,406.51953 H 31.050781 c -4.417969,0 -8,-3.58203 -8,-8 0,-4.41797 3.582031,-8 8,-8 h 49.398438 c 4.417969,0 8,3.58203 8,8 0,4.41797 -3.582031,8 -8,8 z m 0,0"
           id="path4738" />
        <path
           style="fill:#00efd1"
           inkscape:connector-curvature="0"
           d="M 80.449219,449.80078 H 31.050781 c -4.417969,0 -8,-3.58203 -8,-8 0,-4.41797 3.582031,-8 8,-8 h 49.398438 c 4.417969,0 8,3.58203 8,8 0,4.41797 -3.582031,8 -8,8 z m 0,0"
           id="path4740" />
        <path
           style="fill:#f4b844"
           inkscape:connector-curvature="0"
           d="m 220.51953,65.738281 c -3.23437,0 -6.15234,-1.949219 -7.39062,-4.9375 -1.23829,-2.988281 -0.55469,-6.429687 1.73437,-8.71875 l 23.90234,-23.886719 c 3.1211,-3.125 8.1875,-3.128906 11.3125,-0.0039 3.125,3.121094 3.12891,8.1875 0.004,11.3125 l -23.89844,23.894532 c -1.5,1.503906 -3.53906,2.347656 -5.66406,2.339843 z m 0,0"
           id="path4742" />
        <path
           style="fill:#fedb41"
           inkscape:connector-curvature="0"
           d="m 255.57812,47.328125 c -13.0664,0 -23.66015,-10.597656 -23.65625,-23.664063 C 231.92187,10.59375 242.51562,0 255.58203,0 268.65234,0 279.24609,10.589844 279.25,23.660156 279.1953,36.710938 268.62891,47.273438 255.57812,47.328125 Z m 0,0"
           id="path4744" />
        <path
           style="fill:#fedb41"
           inkscape:connector-curvature="0"
           d="m 170.98047,9.949219 97.32812,97.339841 c -26.8789,26.87891 -70.45703,26.875 -97.33203,-0.004 -26.8789,-26.87891 -26.875,-70.457035 0.004,-97.335941 z m 0,0"
           id="path4746" />
      </g>
      <rect
         y="1176.4711"
         x="-320.18735"
         height="7.7131348"
         width="473.38443"
         id="rect5813"
         style="opacity:1;vector-effect:none;fill:#004199;fill-opacity:1;stroke:none;stroke-width:0.38548478;stroke-linecap:round;stroke-linejoin:miter;stroke-miterlimit:4;stroke-dasharray:none;stroke-dashoffset:0;stroke-opacity:1" />
      <g
         transform="matrix(-0.29666908,0,0,-0.29666908,287.1216,686.3317)"
         id="g5869">
        <rect
           x="298.77399"
           y="168.946"
           transform="matrix(-0.7071,-0.7071,0.7071,-0.7071,379.6961,566.7849)"
           style="fill:#8b7e7f"
           width="16.917999"
           height="71.616997"
           id="rect5815" />
        <polygon
           style="fill:#6fc5d6"
           points="350.903,203.364 512,42.268 427.463,42.268 266.368,203.364 "
           id="polygon5817" />
        <g
           id="g5823">
          <path
             inkscape:connector-curvature="0"
             style="fill:#8b7e7f"
             d="m 125.906,113.944 c -3.303,-3.303 -8.66,-3.303 -11.963,0 -3.303,3.303 -3.303,8.66 0,11.963 l 48.348,48.348 11.963,-11.963 z"
             id="path5819" />
          <path
             inkscape:connector-curvature="0"
             style="fill:#8b7e7f"
             d="m 398.056,386.093 -48.348,-48.348 -11.963,11.963 48.348,48.348 c 3.303,3.303 8.66,3.303 11.963,0 3.303,-3.303 3.303,-8.66 0,-11.963 z"
             id="path5821" />
        </g>
        <polygon
           style="fill:#ffd24d"
           points="204.161,204.161 240.049,271.949 307.837,307.837 359.675,255.999 255.999,152.323 "
           id="polygon5825" />
        <rect
           x="193.42"
           y="208.605"
           transform="matrix(-0.7071,0.7071,-0.7071,-0.7071,592.106,318.5703)"
           style="fill:#fee191"
           width="73.308998"
           height="146.618"
           id="rect5827" />
        <g
           id="g5833">
          <path
             inkscape:connector-curvature="0"
             style="fill:#c2b8b9"
             d="m 100.485,204.161 c 28.629,28.629 75.047,28.629 103.676,0 28.629,-28.629 28.629,-75.047 0,-103.676 z"
             id="path5829" />
          <path
             inkscape:connector-curvature="0"
             style="fill:#c2b8b9"
             d="m 307.837,411.513 c -28.629,-28.629 -28.629,-75.047 0,-103.676 28.629,-28.629 75.047,-28.629 103.676,0 z"
             id="path5831" />
        </g>
        <path
           inkscape:connector-curvature="0"
           style="fill:#8b7e7f"
           d="m 236.063,275.937 c -3.303,-3.303 -8.66,-3.303 -11.963,0 l -50.641,50.641 11.963,11.963 50.641,-50.641 c 3.302,-3.303 3.302,-8.659 0,-11.963 z"
           id="path5835" />
        <polygon
           style="fill:#6fc5d6"
           points="84.535,469.732 245.632,308.635 161.097,308.635 0,469.732 "
           id="polygon5837" />
        <g
           id="g5839" />
        <g
           id="g5841" />
        <g
           id="g5843" />
        <g
           id="g5845" />
        <g
           id="g5847" />
        <g
           id="g5849" />
        <g
           id="g5851" />
        <g
           id="g5853" />
        <g
           id="g5855" />
        <g
           id="g5857" />
        <g
           id="g5859" />
        <g
           id="g5861" />
        <g
           id="g5863" />
        <g
           id="g5865" />
        <g
           id="g5867" />
      </g>
      <path
         sodipodi:nodetypes="cc"
         style="fill:none;stroke:#000000;stroke-width:2.52702951;stroke-linecap:butt;stroke-linejoin:miter;stroke-miterlimit:4;stroke-dasharray:20.21623674, 20.21623674;stroke-dashoffset:0;stroke-opacity:1"
         d="m -1340.4797,853.3873 140.7833,-144.39327"
         id="path5871"
         inkscape:connector-curvature="0"
         inkscape:path-effect="#path-effect5660"
         inkscape:original-d="m -1340.4797,853.3873 c 64.0043,-64.00421 76.5276,-80.13757 140.7833,-144.39327"
         transform="matrix(1.0470132,0,0,1.0470132,1384.9704,-41.924797)" />
      <path
         transform="matrix(0,1.1946642,-1.1946642,0,1346.1669,2332.3104)"
         inkscape:original-d="m -1392.4643,901.76187 c 64.0043,-64.00421 128.5122,-128.51214 192.7679,-192.76784"
         inkscape:path-effect="#path-effect5664"
         inkscape:connector-curvature="0"
         id="path5873"
         d="m -1392.4643,901.76187 192.7679,-192.76784"
         style="fill:none;stroke:#000000;stroke-width:2.52702951;stroke-linecap:butt;stroke-linejoin:miter;stroke-miterlimit:4;stroke-dasharray:20.21623674, 20.21623674;stroke-dashoffset:0;stroke-opacity:1" />
      <rect
         style="opacity:1;vector-effect:none;fill:#004199;fill-opacity:1;stroke:none;stroke-width:0.38548478;stroke-linecap:round;stroke-linejoin:miter;stroke-miterlimit:4;stroke-dasharray:none;stroke-dashoffset:0;stroke-opacity:1"
         id="rect5946"
         width="473.38443"
         height="7.7131348"
         x="222.69391"
         y="1118.348" />
    </g>
  </g>
</svg>
